{
  "accessors": [
    {
      "bufferView": 2,
      "componentType": 5126,
      "count": 226,
      "max": [
        0.6208837032318115,
        3.5218656063079834,
        0.5656989216804504
      ],
      "min": [
        -0.6496354341506958,
        -0.9469462633132935,
        -0.6081355214118958
      ],
      "type": "VEC3"
    },
    {
      "bufferView": 2,
      "byteOffset": 2712,
      "componentType": 5126,
      "count": 226,
      "max": [
        0.9997721910476685,
        0.9797732830047607,
        0.9733683466911316
      ],
      "min": [
        -0.9999798536300659,
        -0.9442533254623413,
        -0.9706361293792725
      ],
      "type": "VEC3"
    },
    {
      "bufferView": 1,
      "componentType": 5126,
      "count": 226,
      "max": [
        1.0,
        1.0
      ],
      "min": [
        0.0,
        0.0
      ],
      "type": "VEC2"
    },
    {
      "bufferView": 0,
      "componentType": 5125,
      "count": 1002,
      "type": "SCALAR"
    },
    {
      "bufferView": 2,
      "byteOffset": 5424,
      "componentType": 5126,
      "count": 3273,
      "max": [
        0.9939460754394531,
        10.937649726867676,
        0.9792899489402771
      ],
      "min": [
        -0.9922370910644531,
        2.068366527557373,
        -1.0806922912597656
      ],
      "type": "VEC3"
    },
    {
      "bufferView": 2,
      "byteOffset": 44700,
      "componentType": 5126,
      "count": 3273,
      "max": [
        0.9996093511581421,
        1.0,
        0.9995276927947998
      ],
      "min": [
        -0.9986583590507507,
        -1.0,
        -0.9998102188110352
      ],
      "type": "VEC3"
    },
    {
      "bufferView": 1,
      "byteOffset": 1808,
      "componentType": 5126,
      "count": 3273,
      "max": [
        0.96952885389328,
        0.986578643321991
      ],
      "min": [
        0.017960786819458008,
        0.01639876887202263
      ],
      "type": "VEC2"
    },
    {
      "bufferView": 0,
      "byteOffset": 4008,
      "componentType": 5125,
      "count": 11502,
      "type": "SCALAR"
    },
    {
      "bufferView": 2,
      "byteOffset": 83976,
      "componentType": 5126,
      "count": 2813,
      "max": [
        0.455291748046875,
        10.978658676147461,
        0.3261756896972656
      ],
      "min": [
        -0.4851951599121094,
        2.3668465614318848,
        -0.4874134063720703
      ],
      "type": "VEC3"
    },
    {
      "bufferView": 2,
      "byteOffset": 117732,
      "componentType": 5126,
      "count": 2813,
      "max": [
        0.9984688758850098,
        0.9996745586395264,
        0.9992756843566895
      ],
      "min": [
        -0.9993091821670532,
        -0.9991846084594727,
        -0.9981272220611572
      ],
      "type": "VEC3"
    },
    {
      "bufferView": 1,
      "byteOffset": 27992,
      "componentType": 5126,
      "count": 2813,
      "max": [
        0.9736677408218384,
        0.9819263815879822
      ],
      "min": [
        0.03461909666657448,
        0.017612814903259277
      ],
      "type": "VEC2"
    },
    {
      "bufferView": 0,
      "byteOffset": 50016,
      "componentType": 5125,
      "count": 7950,
      "type": "SCALAR"
    },
    {
      "bufferView": 3,
      "componentType": 5126,
      "count": 600,
      "max": [
        24.0
      ],
      "min": [
        0.03999999910593033
      ],
      "type": "SCALAR"
    },
    {
      "bufferView": 4,
      "componentType": 5126,
      "count": 600,
      "max": [
        0.015743941068649292,
        10.48096752166748,
        0.014673247933387756
      ],
      "min": [
        -0.024256058037281036,
        10.10099983215332,
        -0.12709122896194458
      ],
      "type": "VEC3"
    },
    {
      "bufferView": 3,
      "byteOffset": 2400,
      "componentType": 5126,
      "count": 600,
      "max": [
        24.0
      ],
      "min": [
        0.03999999910593033
      ],
      "type": "SCALAR"
    },
    {
      "bufferView": 5,
      "componentType": 5126,
      "count": 600,
      "max": [
        0.0,
        0.5976250767707825,
        -0.0,
        1.0
      ],
      "min": [
        0.0,
        -0.35510700941085815,
        -0.0,
        0.8017756938934326
      ],
      "type": "VEC4"
    },
    {
      "bufferView": 3,
      "byteOffset": 4800,
      "componentType": 5126,
      "count": 600,
      "max": [
        24.0
      ],
      "min": [
        0.03999999910593033
      ],
      "type": "SCALAR"
    },
    {
      "bufferView": 4,
      "byteOffset": 7200,
      "componentType": 5126,
      "count": 600,
      "max": [
        1.2300000190734863,
        1.3600000143051147,
        1.551825761795044
      ],
      "min": [
        0.8500000238418579,
        0.8729993104934692,
        0.9999999403953552
      ],
      "type": "VEC3"
    }
  ],
  "animations": [
    {
      "channels": [
        {
          "sampler": 0,
          "target": {
            "node": 3,
            "path": "translation"
          }
        },
        {
          "sampler": 1,
          "target": {
            "node": 3,
            "path": "rotation"
          }
        },
        {
          "sampler": 2,
          "target": {
            "node": 3,
            "path": "scale"
          }
        }
      ],
      "name": "Burning",
      "samplers": [
        {
          "input": 12,
          "interpolation": "LINEAR",
          "output": 13
        },
        {
          "input": 14,
          "interpolation": "LINEAR",
          "output": 15
        },
        {
          "input": 16,
          "interpolation": "LINEAR",
          "output": 17
        }
      ]
    }
  ],
  "asset": {
    "extras": {
      "author": "Leon_dp (https://sketchfab.com/leondp)",
      "license": "CC-BY-4.0 (http://creativecommons.org/licenses/by/4.0/)",
      "source": "https://sketchfab.com/3d-models/non-textured-burning-torch-1-ee937f7c641a4366824ea583d3ad75a8",
      "title": "Non-textured burning torch (1)"
    },
    "generator": "Sketchfab-12.68.0",
    "version": "2.0"
  },
  "bufferViews": [
    {
      "buffer": 0,
      "byteLength": 81816,
      "name": "floatBufferViews",
      "target": 34963
    },
    {
      "buffer": 0,
      "byteLength": 50496,
      "byteOffset": 81816,
      "byteStride": 8,
      "name": "floatBufferViews",
      "target": 34962
    },
    {
      "buffer": 0,
      "byteLength": 151488,
      "byteOffset": 132312,
      "byteStride": 12,
      "name": "floatBufferViews",
      "target": 34962
    },
    {
      "buffer": 0,
      "byteLength": 7200,
      "byteOffset": 283800,
      "name": "floatBufferViews"
    },
    {
      "buffer": 0,
      "byteLength": 14400,
      "byteOffset": 291000,
      "byteStride": 12,
      "name": "floatBufferViews"
    },
    {
      "buffer": 0,
      "byteLength": 9600,
      "byteOffset": 305400,
      "byteStride": 16,
      "name": "floatBufferViews"
    }
  ],
  "buffers": [
    {
      "byteLength": 315000,
      "uri": "scene.bin"
    }
  ],
  "materials": [
    {
      "alphaMode": "BLEND",
      "doubleSided": true,
      "emissiveFactor": [
        1.0,
        0.5992456633164914,
        0.0
      ],
      "name": "fire_flame",
      "pbrMetallicRoughness": {
        "baseColorFactor": [
          1.0,
          0.08234100000000003,
          0.0,
          0.2692376678887815
        ],
        "metallicFactor": 0.0
      }
    },
    {
      "doubleSided": true,
      "name": "metallic_clean",
      "pbrMetallicRoughness": {
        "baseColorFactor": [
          0.12677174424742127,
          0.15102202346417404,
          0.19413198274092813,
          1.0
        ],
        "roughnessFactor": 0.14763420462214766
      }
    },
    {
      "doubleSided": true,
      "name": "wood_leather",
      "pbrMetallicRoughness": {
        "baseColorFactor": [
          0.0310635,
          0.0145422,
          0.00671727,
          1.0
        ],
        "metallicFactor": 0.8954955037119458,
        "roughnessFactor": 0.6948497893219999
      }
    }
  ],
  "meshes": [
    {
      "name": "Object_0",
      "primitives": [
        {
          "attributes": {
            "NORMAL": 1,
            "POSITION": 0,
            "TEXCOORD_0": 2
          },
          "indices": 3,
          "material": 0,
          "mode": 4
        }
      ]
    },
    {
      "name": "Object_1",
      "primitives": [
        {
          "attributes": {
            "NORMAL": 5,
            "POSITION": 4,
            "TEXCOORD_0": 6
          },
          "indices": 7,
          "material": 1,
          "mode": 4
        }
      ]
    },
    {
      "name": "Object_2",
      "primitives": [
        {
          "attributes": {
            "NORMAL": 9,
            "POSITION": 8,
            "TEXCOORD_0": 10
          },
          "indices": 11,
          "material": 2,
          "mode": 4
        }
      ]
    }
  ],
  "nodes": [
    {
      "children": [
        1
      ],
      "matrix": [
        1.0,
        0.0,
        0.0,
        0.0,
        0.0,
        2.220446049250313e-16,
        -1.0,
        0.0,
        0.0,
        1.0,
        2.220446049250313e-16,
        0.0,
        0.0,
        0.0,
        0.0,
        1.0
      ],
      "name": "Sketchfab_model"
    },
    {
      "children": [
        2
      ],
      "name": "root"
    },
    {
      "children": [
        3,
        5,
        7
      ],
      "matrix": [
        1.0,
        0.0,
        0.0,
        0.0,
        0.0,
        2.220446049250313e-16,
        1.0,
        0.0,
        0.0,
        -1.0,
        2.220446049250313e-16,
        0.0,
        0.0,
        0.0,
        0.0,
        1.0
      ],
      "name": "GLTF_SceneRootNode"
    },
    {
      "children": [
        4
      ],
      "name": "torche_fire_flame_0",
      "scale": [
        1.0,
        1.1100000143051147,
        1.0
      ],
      "translation": [
        0.015743941068649292,
        10.220967292785645,
        0.014673247933387756
      ]
    },
    {
      "mesh": 0,
      "name": "Object_4"
    },
    {
      "children": [
        6
      ],
      "name": "torche_metallic_clean_1"
    },
    {
      "mesh": 1,
      "name": "Object_6"
    },
    {
      "children": [
        8
      ],
      "name": "torche_wood_leather_2"
    },
    {
      "mesh": 2,
      "name": "Object_8"
    }
  ],
  "scene": 0,
  "scenes": [
    {
      "name": "Sketchfab_Scene",
      "nodes": [
        0
      ]
    }
  ]
}
