{
  "accessors": [
    {
      "bufferView": 2,
      "componentType": 5126,
      "count": 26496,
      "max": [
        7.569857597351074,
        2.175544500350952,
        85.0621566772461
      ],
      "min": [
        -7.579548358917236,
        -2.1736748218536377,
        -11.735078811645508
      ],
      "type": "VEC3"
    },
    {
      "bufferView": 2,
      "byteOffset": 317952,
      "componentType": 5126,
      "count": 26496,
      "max": [
        0.9967567920684814,
        0.999691367149353,
        0.9968238472938538
      ],
      "min": [
        -0.9993549585342407,
        -0.9999822378158569,
        -0.9997534155845642
      ],
      "type": "VEC3"
    },
    {
      "bufferView": 1,
      "componentType": 5126,
      "count": 26496,
      "max": [
        1.0000001192092896,
        1.000000238418579
      ],
      "min": [
        4.470348002882929e-08,
        0.024473771452903748
      ],
      "type": "VEC2"
    },
    {
      "bufferView": 0,
      "componentType": 5125,
      "count": 39744,
      "type": "SCALAR"
    },
    {
      "bufferView": 2,
      "byteOffset": 635904,
      "componentType": 5126,
      "count": 15360,
      "max": [
        0.7684867978096008,
        0.7689971327781677,
        0.706095814704895
      ],
      "min": [
        -0.7684867978096008,
        -0.7689971327781677,
        -0.8409473896026611
      ],
      "type": "VEC3"
    },
    {
      "bufferView": 2,
      "byteOffset": 820224,
      "componentType": 5126,
      "count": 15360,
      "max": [
        0.999345064163208,
        0.9978277087211609,
        0.9986804127693176
      ],
      "min": [
        -0.9993449449539185,
        -0.9978277087211609,
        -0.9986802339553833
      ],
      "type": "VEC3"
    },
    {
      "bufferView": 1,
      "byteOffset": 211968,
      "componentType": 5126,
      "count": 15360,
      "max": [
        1.0,
        0.4723820686340332
      ],
      "min": [
        0.0,
        0.0
      ],
      "type": "VEC2"
    },
    {
      "bufferView": 0,
      "byteOffset": 158976,
      "componentType": 5125,
      "count": 23040,
      "type": "SCALAR"
    },
    {
      "bufferView": 3,
      "componentType": 5126,
      "count": 41,
      "max": [
        0.8333333134651184
      ],
      "min": [
        0.0
      ],
      "type": "SCALAR"
    },
    {
      "bufferView": 4,
      "componentType": 5126,
      "count": 41,
      "max": [
        -0.3839665949344635,
        -0.0,
        0.0,
        0.923346996307373
      ],
      "min": [
        -0.7715757489204407,
        -0.0,
        0.0,
        0.6361374258995056
      ],
      "type": "VEC4"
    }
  ],
  "animations": [
    {
      "channels": [
        {
          "sampler": 0,
          "target": {
            "node": 6,
            "path": "rotation"
          }
        }
      ],
      "name": "Icosphere|IcosphereAction",
      "samplers": [
        {
          "input": 8,
          "interpolation": "LINEAR",
          "output": 9
        }
      ]
    }
  ],
  "asset": {
    "extras": {
      "author": "IvanCrisan (https://sketchfab.com/IvanCrisan)",
      "license": "CC-BY-4.0 (http://creativecommons.org/licenses/by/4.0/)",
      "source": "https://sketchfab.com/3d-models/magic-wand-fcfb4ff9cfea45e380e785a69be20139",
      "title": "Magic Wand"
    },
    "generator": "Sketchfab-15.26.0",
    "version": "2.0"
  },
  "bufferViews": [
    {
      "buffer": 0,
      "byteLength": 251136,
      "name": "floatBufferViews",
      "target": 34963
    },
    {
      "buffer": 0,
      "byteLength": 334848,
      "byteOffset": 251136,
      "byteStride": 8,
      "name": "floatBufferViews",
      "target": 34962
    },
    {
      "buffer": 0,
      "byteLength": 1004544,
      "byteOffset": 585984,
      "byteStride": 12,
      "name": "floatBufferViews",
      "target": 34962
    },
    {
      "buffer": 0,
      "byteLength": 164,
      "byteOffset": 1590528,
      "name": "floatBufferViews"
    },
    {
      "buffer": 0,
      "byteLength": 656,
      "byteOffset": 1590692,
      "byteStride": 16,
      "name": "floatBufferViews"
    }
  ],
  "buffers": [
    {
      "byteLength": 1591348,
      "uri": "scene.bin"
    }
  ],
  "extensionsUsed": [
    "KHR_materials_emissive_strength"
  ],
  "materials": [
    {
      "doubleSided": true,
      "name": "Material.002",
      "pbrMetallicRoughness": {
        "baseColorFactor": [
          0.0,
          0.0,
          0.0,
          1.0
        ],
        "metallicFactor": 0.0
      }
    },
    {
      "doubleSided": true,
      "emissiveFactor": [
        0.000944263,
        0.0,
        1.0
      ],
      "extensions": {
        "KHR_materials_emissive_strength": {
          "emissiveStrength": 10.0
        }
      },
      "name": "Material.003",
      "pbrMetallicRoughness": {
        "baseColorFactor": [
          0.01972,
          0.0,
          0.8,
          1.0
        ],
        "metallicFactor": 0.0,
        "roughnessFactor": 0.9861470061233848
      }
    }
  ],
  "meshes": [
    {
      "name": "Cylinder_Material.002_0",
      "primitives": [
        {
          "attributes": {
            "NORMAL": 1,
            "POSITION": 0,
            "TEXCOORD_0": 2
          },
          "indices": 3,
          "material": 0,
          "mode": 4
        }
      ]
    },
    {
      "name": "Icosphere_Material.003_0",
      "primitives": [
        {
          "attributes": {
            "NORMAL": 5,
            "POSITION": 4,
            "TEXCOORD_0": 6
          },
          "indices": 7,
          "material": 1,
          "mode": 4
        }
      ]
    }
  ],
  "nodes": [
    {
      "children": [
        1
      ],
      "matrix": [
        1.0,
        0.0,
        0.0,
        0.0,
        0.0,
        2.220446049250313e-16,
        -1.0,
        0.0,
        0.0,
        1.0,
        2.220446049250313e-16,
        0.0,
        0.0,
        0.0,
        0.0,
        1.0
      ],
      "name": "Sketchfab_model"
    },
    {
      "children": [
        2
      ],
      "matrix": [
        0.009999999776482582,
        0.0,
        0.0,
        0.0,
        0.0,
        0.0,
        0.009999999776482582,
        0.0,
        0.0,
        -0.009999999776482582,
        0.0,
        0.0,
        0.0,
        0.0,
        0.0,
        1.0
      ],
      "name": "104fdf1388b6430daece85132adf1560.fbx"
    },
    {
      "children": [
        3
      ],
      "name": "Object_2"
    },
    {
      "children": [
        4,
        6
      ],
      "name": "RootNode"
    },
    {
      "children": [
        5
      ],
      "name": "Cylinder",
      "rotation": [
        -0.7071068286895752,
        0.0,
        0.0,
        0.7071067094802856
      ],
      "scale": [
        59.37300491333008,
        59.37300491333008,
        59.37300491333008
      ],
      "translation": [
        1.3901054859161377,
        417.29736328125,
        0.0
      ]
    },
    {
      "mesh": 0,
      "name": "Cylinder_Material.002_0"
    },
    {
      "children": [
        7
      ],
      "name": "Icosphere",
      "rotation": [
        -0.6147450804710388,
        -0.0,
        0.0,
        0.7887258529663086
      ],
      "scale": [
        207.16180419921875,
        207.16180419921875,
        207.16180419921875
      ],
      "translation": [
        16.750097274780273,
        5028.23095703125,
        0.0
      ]
    },
    {
      "mesh": 1,
      "name": "Icosphere_Material.003_0"
    }
  ],
  "scene": 0,
  "scenes": [
    {
      "name": "Sketchfab_Scene",
      "nodes": [
        0
      ]
    }
  ]
}
